<svg xmlns="http://www.w3.org/2000/svg" width="130" height="30" viewBox="0 0 130 30"><g transform="translate(-32 -43)"><rect width="130" height="30" transform="translate(32 43)" fill="#fff" opacity="0"/><g transform="translate(32 41.348)"><path d="M18.615-89.43A7.872,7.872,0,0,1,17-88.653a6.176,6.176,0,0,1-2.13.357,7,7,0,0,1-3.575-.9,6.194,6.194,0,0,1-2.377-2.414,6.846,6.846,0,0,1-.832-3.346,7.309,7.309,0,0,1,.841-3.52,6.223,6.223,0,0,1,2.331-2.45,6.47,6.47,0,0,1,3.374-.887,7.18,7.18,0,0,1,2.084.293,7.282,7.282,0,0,1,1.737.768l-.713,1.664a5.421,5.421,0,0,0-3.054-1.024,4.4,4.4,0,0,0-2.368.677,4.986,4.986,0,0,0-1.737,1.838,5.139,5.139,0,0,0-.649,2.551,5.54,5.54,0,0,0,.594,2.578,4.365,4.365,0,0,0,1.7,1.8,4.946,4.946,0,0,0,2.551.649,4.946,4.946,0,0,0,3.09-1.006Zm2.158-5.613a6.52,6.52,0,0,1,.914-3.364,6.942,6.942,0,0,1,2.459-2.478,6.456,6.456,0,0,1,3.374-.923,6.471,6.471,0,0,1,3.364.923,6.992,6.992,0,0,1,2.478,2.478,6.471,6.471,0,0,1,.923,3.364,6.554,6.554,0,0,1-.914,3.383A6.753,6.753,0,0,1,30.893-89.2a6.619,6.619,0,0,1-3.374.905,6.656,6.656,0,0,1-3.383-.9,6.655,6.655,0,0,1-2.459-2.441A6.623,6.623,0,0,1,20.773-95.044Zm1.828.018a4.963,4.963,0,0,0,.658,2.505,4.937,4.937,0,0,0,1.8,1.828,4.811,4.811,0,0,0,2.5.677,4.764,4.764,0,0,0,2.478-.667,4.822,4.822,0,0,0,1.774-1.828,5.1,5.1,0,0,0,.649-2.532,5.1,5.1,0,0,0-.658-2.542,4.919,4.919,0,0,0-1.792-1.847,4.763,4.763,0,0,0-2.487-.677,4.715,4.715,0,0,0-2.487.686,4.919,4.919,0,0,0-1.783,1.856A5.154,5.154,0,0,0,22.6-95.025Zm16.438-6.637v13.22H37.266v-13.22Zm15.323,0V-88h-.055L44.6-97.859l.037,9.417H42.843v-13.622h.091L52.625-92.1l-.037-9.563Z" transform="translate(75.638 111.737)" fill="#fc0"/><path d="M27.395-102.2v13.641H25.64v-8.557l-4.864,6.893h-.037l-4.772-6.656v8.32H14.248V-102.2h.018l6.509,9.216,6.6-9.216Zm5.577.421v13.22H31.2v-13.22Zm16.95-.421v13.641H48.167v-8.557L43.3-90.225h-.037l-4.772-6.656v8.32H36.775V-102.2h.018L43.3-92.986l6.6-9.216Zm12.4.421v1.7H55.5v4.023h6.089v1.7H55.5v4.078h7.076v1.719h-8.85v-13.22Z" transform="translate(18.18 112.044)" fill="#262626"/><path d="M13.483,29.925a4.005,4.005,0,0,1-2-.539L2,23.895a4.013,4.013,0,0,1-2-3.461v-11A4.013,4.013,0,0,1,2,5.968L11.479.476a4,4,0,0,1,4.009,0l9.483,5.492a4.013,4.013,0,0,1,2,3.461v11a4.013,4.013,0,0,1-2,3.461l-9.483,5.492A4,4,0,0,1,13.483,29.925Zm0-24.072a4.006,4.006,0,0,0-2,.537L7.095,8.927a4.013,4.013,0,0,0-2,3.464v5.081a4.01,4.01,0,0,0,2,3.463l4.392,2.538a4,4,0,0,0,4,0l4.393-2.538a4.011,4.011,0,0,0,2-3.463V12.391a4.014,4.014,0,0,0-2-3.464L15.489,6.39A4,4,0,0,0,13.488,5.853Z" transform="translate(0 1.714)" fill="#fc0"/><path d="M4.03,0A1,1,0,0,1,4.9.5l.957,1.656a1,1,0,0,1,0,1L4.9,4.812a1,1,0,0,1-.866.5H2.113a1,1,0,0,1-.866-.5L.289,3.156a1,1,0,0,1,0-1L1.247.5A1,1,0,0,1,2.113,0Z" transform="translate(16.312 13.652) rotate(90)" fill="#262626"/><path d="M9.216,20.968a4.01,4.01,0,0,1-1.979-.523L1.021,16.907A4.007,4.007,0,0,1-1,13.431V6.455A4.009,4.009,0,0,1,1.021,2.978L7.237-.559a4,4,0,0,1,3.957,0L17.41,2.978a4.01,4.01,0,0,1,2.021,3.477v6.976a4.008,4.008,0,0,1-2.021,3.477l-6.215,3.538A4.01,4.01,0,0,1,9.216,20.968Zm.01-20.2a4.006,4.006,0,0,0-2,.537L2.746,3.889a4.011,4.011,0,0,0-2,3.463v5.181a4.011,4.011,0,0,0,2,3.463l4.478,2.588a4,4,0,0,0,4,0L15.7,16a4.01,4.01,0,0,0,2-3.463V7.352a4.01,4.01,0,0,0-2-3.463L11.227,1.3A4,4,0,0,0,9.226.765Z" transform="translate(4.401 6.795)" fill="#ffb100"/></g></g></svg>