<svg xmlns="http://www.w3.org/2000/svg" width="1402.569" height="330.459" viewBox="0 0 1402.569 330.459">
    <defs>
        <style>
            .a {
                fill: #fc0;
            }

            .b {
                fill: #303030;
            }

            .c {
                fill: #e9bc07;
            }

            .d {
                fill: #fff;
            }
        </style>
    </defs>
    <g transform="translate(-1933.138 -1257)">
        <path class="a"
            d="M121.714,34.253a84.934,84.934,0,0,1-17.459,8.384,66.632,66.632,0,0,1-22.983,3.847q-21.9,0-38.567-9.667a66.826,66.826,0,0,1-25.646-26.04,73.858,73.858,0,0,1-8.976-36.1q0-21.109,9.075-37.976A67.142,67.142,0,0,1,42.31-89.735Q58.388-99.3,78.708-99.3A77.46,77.46,0,0,1,101.2-96.147a78.556,78.556,0,0,1,18.741,8.286l-7.694,17.952Q95.871-80.956,79.3-80.956a47.469,47.469,0,0,0-25.547,7.3A53.8,53.8,0,0,0,35.011-53.831a55.439,55.439,0,0,0-7,27.52A59.768,59.768,0,0,0,34.419,1.5,47.1,47.1,0,0,0,52.766,20.937q11.935,7,27.52,7,19.136,0,33.34-10.85Zm23.279-60.564a70.348,70.348,0,0,1,9.864-36.3A74.894,74.894,0,0,1,181.39-89.341a69.657,69.657,0,0,1,36.4-9.962,69.818,69.818,0,0,1,36.3,9.962A75.44,75.44,0,0,1,280.817-62.61a69.818,69.818,0,0,1,9.962,36.3,70.706,70.706,0,0,1-9.864,36.5,72.854,72.854,0,0,1-26.731,26.534,71.418,71.418,0,0,1-36.4,9.765,71.812,71.812,0,0,1-36.5-9.667,71.8,71.8,0,0,1-26.534-26.336A71.459,71.459,0,0,1,144.993-26.311Zm19.728.2a53.545,53.545,0,0,0,7.1,27.027,53.263,53.263,0,0,0,19.432,19.728,51.906,51.906,0,0,0,26.928,7.3,51.4,51.4,0,0,0,26.731-7.2A52.028,52.028,0,0,0,264.049,1.012a55.056,55.056,0,0,0,7-27.323,55,55,0,0,0-7.1-27.421,53.07,53.07,0,0,0-19.333-19.925,51.389,51.389,0,0,0-26.83-7.3,50.869,50.869,0,0,0-26.83,7.4,53.07,53.07,0,0,0-19.234,20.024A55.606,55.606,0,0,0,164.72-26.114ZM342.072-97.725V44.906H322.936V-97.725Zm165.317,0V49.64H506.8L402.043-56.691l.395,101.6H383.1V-102.065h.986L488.648,5.451l-.395-103.175Z"
            transform="translate(2828.318 1448.065)" />
        <path class="b"
            d="M156.09-102.2V44.966H137.151V-47.359L84.676,27.014h-.395L32.792-44.795V44.966H14.248V-102.2h.2L84.676-2.775,155.892-102.2Zm60.169,4.537V44.966H197.123V-97.665ZM399.134-102.2V44.966H380.2V-47.359L327.72,27.014h-.395L275.836-44.795V44.966H257.292V-102.2h.2L327.72-2.775,398.936-102.2Zm133.753,4.537v18.347H459.3v43.4H525v18.347H459.3V26.422h76.346V44.966H440.167V-97.665Z"
            transform="translate(2268.752 1450.034)" />
        <path class="a"
            d="M146.96,333.377a32.036,32.036,0,0,1-16.036-4.309L15.963,262.5A32,32,0,0,1,0,234.8V101.491A32,32,0,0,1,15.963,73.8L130.924,7.226a32,32,0,0,1,32.072,0L277.956,73.8a32,32,0,0,1,15.964,27.692V234.8A32,32,0,0,1,277.956,262.5L163,329.069A32.04,32.04,0,0,1,146.96,333.377Zm.056-265.98a32.046,32.046,0,0,0-16.01,4.292L71.532,106.054a32.091,32.091,0,0,0-15.99,27.707v68.772a32.091,32.091,0,0,0,15.99,27.707l59.474,34.365a32,32,0,0,0,32.019,0L222.5,230.241a32.091,32.091,0,0,0,15.99-27.707V133.762a32.09,32.09,0,0,0-15.99-27.707L163.025,71.69A32.043,32.043,0,0,0,147.016,67.4Z"
            transform="translate(1933.138 1254.082)" />
        <path class="c"
            d="M99.426,222.35a32.041,32.041,0,0,1-15.985-4.279L16.015,179.19A32,32,0,0,1,0,151.469V73.776A32,32,0,0,1,16.015,46.055L83.441,7.174a32,32,0,0,1,31.971,0l67.425,38.881a32,32,0,0,1,16.015,27.721v77.693a32,32,0,0,1-16.015,27.721l-67.425,38.881A32.045,32.045,0,0,1,99.426,222.35Zm.111-210.478a32.04,32.04,0,0,0-16.009,4.293L24.053,50.529A32.09,32.09,0,0,0,8.062,78.236v68.773a32.09,32.09,0,0,0,15.99,27.707L83.527,209.08a32,32,0,0,0,32.018,0l59.475-34.364a32.09,32.09,0,0,0,15.99-27.707V78.236a32.09,32.09,0,0,0-15.99-27.707L115.546,16.165A32.04,32.04,0,0,0,99.536,11.872Z"
            transform="translate(1980.617 1309.607)" />
        <path class="d"
            d="M33.17,0A28.655,28.655,0,0,1,57.978,14.312h0a28.655,28.655,0,0,1,0,28.686h0A28.655,28.655,0,0,1,33.17,57.31H33.1A28.655,28.655,0,0,1,8.293,43h0a28.655,28.655,0,0,1,0-28.686h0A28.655,28.655,0,0,1,33.1,0Z"
            transform="translate(2108.698 1389.094) rotate(90)" />
    </g>
</svg>